<svg xmlns="http://www.w3.org/2000/svg" width="26" height="24.87" viewBox="0 0 26 24.87">
    <defs>
        <style>
            .cls-1{fill:#ff3c00}
        </style>
    </defs>
    <g id="enter" transform="translate(0 -.333)">
        <path id="Path_39" d="M17.239 220.7H.848a.848.848 0 0 1 0-1.7h16.391a.848.848 0 1 1 0 1.7zm0 0" class="cls-1" transform="translate(0 -207.08)"/>
        <path id="Path_40" d="M224.852 144.37a.848.848 0 0 1-.6-1.448l3.923-3.922-3.923-3.923a.848.848 0 0 1 1.2-1.2l4.522 4.522a.848.848 0 0 1 0 1.2l-4.522 4.522a.841.841 0 0 1-.6.25zm0 0" class="cls-1" transform="translate(-212.134 -126.233)"/>
        <path id="Path_41" d="M48.1 25.2a12.37 12.37 0 0 1-11.573-7.886.848.848 0 1 1 1.578-.619 10.739 10.739 0 1 0 0-7.859.848.848 0 1 1-1.578-.619A12.435 12.435 0 1 1 48.1 25.2zm0 0" class="cls-1" transform="translate(-34.539)"/>
    </g>
</svg>
