<svg xmlns="http://www.w3.org/2000/svg" width="20" height="20" viewBox="0 0 20 20">
    <path fill="#ffffff" d="M165.34 158.9h-4.24a2.2 2.2 0 0 0-2.2 2.2v4.244a2.2 2.2 0 0 0 2.2 2.2h4.244a2.2 2.2 0 0 0 2.2-2.2V161.1a2.2 2.2 0 0 0-2.204-2.2zm-2.124 7.156a2.84 2.84 0 1 1 2.84-2.84 2.845 2.845 0 0 1-2.84 2.839zm2.982-5.364a.48.48 0 1 1 .48-.48.478.478 0 0 1-.478.479z" transform="translate(-153.216 -153.216)"/>
    <circle fill="#ffffff" cx="1.724" cy="1.724" r="1.724" transform="rotate(-89.312 10.051 1.674)"/>
    <path fill="#ffffff" d="M41 31a10 10 0 1 0 10 10 10 10 0 0 0-10-10zm5.556 12.124a3.433 3.433 0 0 1-3.431 3.431H38.88a3.433 3.433 0 0 1-3.431-3.431V38.88a3.433 3.433 0 0 1 3.431-3.431h4.244a3.433 3.433 0 0 1 3.431 3.431z" transform="translate(-31 -31)"/>
</svg>
