<svg xmlns="http://www.w3.org/2000/svg" width="20" height="20" viewBox="0 0 20 20">
    <path fill="#ffffff" d="M160.559 164.652l1.75-.556a4.51 4.51 0 1 0-2.048-3.771 4.471 4.471 0 0 0 .867 2.649zm2.077-6.616a.49.49 0 0 1 .354-.165c.089 0 .177.011.255.011s.188-.044.3.22.376.912.409.978a.241.241 0 0 1 .011.231.9.9 0 0 1-.133.22c-.066.077-.14.171-.2.231s-.136.137-.058.269a3.969 3.969 0 0 0 .739.912 3.624 3.624 0 0 0 1.068.654c.133.066.21.055.288-.033s.332-.384.42-.516.177-.11.3-.066.774.363.907.428.221.1.254.153a1.093 1.093 0 0 1-.078.626 1.341 1.341 0 0 1-.9.626c-.243.022-.243.2-1.593-.329a5.421 5.421 0 0 1-2.268-1.989 2.55 2.55 0 0 1-.542-1.362 1.472 1.472 0 0 1 .467-1.099z" transform="translate(-154.713 -150.467)"/>
    <path fill="#ffffff" d="M51 61a10 10 0 1 0-10-10 10 10 0 0 0 10 10zm-5.316-10.142a5.4 5.4 0 1 1 2.8 4.705l-3 .953.977-2.883a5.319 5.319 0 0 1-.777-2.775z" transform="translate(-41 -41)"/>
</svg>
